<svg width="20" height="791" viewBox="0 0 20 791" fill="none" xmlns="http://www.w3.org/2000/svg">
<path d="M0 0H20V20H0V0Z" fill="#D9D9D9"/>
<path d="M0 40H20V60H0V40Z" fill="#D9D9D9"/>
<path d="M0 81H20V101H0V81Z" fill="#D9D9D9"/>
<path d="M0 121H20V141H0V121Z" fill="#D9D9D9"/>
<path d="M0 161H20V181H0V161Z" fill="#D9D9D9"/>
<path d="M0 202H20V222H0V202Z" fill="#D9D9D9"/>
<path d="M0 242H20V262H0V242Z" fill="#D9D9D9"/>
<path d="M0 282H20V302H0V282Z" fill="#D9D9D9"/>
<path d="M0 323H20V343H0V323Z" fill="#D9D9D9"/>
<path d="M0 363H20V383H0V363Z" fill="#D9D9D9"/>
<path d="M0 403H20V423H0V403Z" fill="#D9D9D9"/>
<path d="M0 444H20V464H0V444Z" fill="#D9D9D9"/>
<path d="M0 486H20V506H0V486Z" fill="#D9D9D9"/>
<path d="M0 526H20V546H0V526Z" fill="#D9D9D9"/>
<path d="M0 567H20V587H0V567Z" fill="#D9D9D9"/>
<path d="M0 607H20V627H0V607Z" fill="#D9D9D9"/>
<path d="M0 647H20V667H0V647Z" fill="#D9D9D9"/>
<path d="M0 688H20V708H0V688Z" fill="#D9D9D9"/>
<path d="M0 730H20V750H0V730Z" fill="#D9D9D9"/>
<path d="M0 771H20V791H0V771Z" fill="#D9D9D9"/>
</svg>
